<?xml version="1.0" encoding="UTF-8"?>
<svg id="Capa_2" data-name="Capa 2" xmlns="http://www.w3.org/2000/svg" viewBox="0 0 816.82 436.23">
  <defs>
    <style>
      .cls-1 {
        stroke: #3f3b39;
        stroke-miterlimit: 10;
        stroke-width: 10.3px;
      }

      .cls-1, .cls-2 {
        fill: #f6fcee;
      }

      .cls-3 {
        fill: #3f3b39;
      }
    </style>
  </defs>
  <g id="Capa_1-2" data-name="Capa 1">
    <g>
      <path class="cls-1" d="M811.67,431.08H85.17c-44.19,0-80.02-33.8-80.02-75.49V5.15h725.87c44.54,0,80.65,34.07,80.65,76.09v349.85Z"/>
      <path class="cls-3" d="M5.15,4.23h338.64c42.11,0,76.25,34.14,76.25,76.25v350.61H81.4c-42.11,0-76.25-34.14-76.25-76.25V4.23Z"/>
      <g>
        <path class="cls-2" d="M136.15,322.86c4.29-17.3,15.73-36.57,35.85-35.84,20.39-.4,31.99,19.82,36.6,37.39.96,8.31,14.02,7.07,12.74-1.37-5.75-22.89-21-48-46.96-48.73-27.95-2.21-44.99,22.74-51.11,47.06-1.73,5.82-7.57,7.84-13.1,7.52-4.08-.24-8.21-1.39-10.18-5.61-40.54-79.04-22.82-169.04,77.37-176.03-17.18,31.98,10.96,71.05,35,91.17,17.47,19.43,41.53,15.21,47.23-11.22,2.88-11.88,5.86-27.22-4.22-26.04-2.81.33-5.38,2.76-5.56,6.15-.36,18.25-8.12,42.05-25.61,24.59-18.66-17.72-38.69-34.66-39.33-62.77-.55-5.78.97-11.28,4.2-15.29,3.14-3.9,7.9-6.56,13.97-6.58,0,0,62.41,0,62.41,0,47.17-.72,74.82,47.39,81.47,89.33.43,2.71,2.55,4.81,5.25,5.25.04,0,.09.01.13.02,4.17.65,7.79-2.96,7.14-7.13-7.26-46.34-37.59-97.11-87.7-100.11h-37.07c-.18-.29-.37-.58-.58-.86-.03-.05-.07-.09-.11-.14,8.83-12.46,10.3-29.24,5.91-43.86-4.39-14.63-14.13-27.23-25.75-37.14,6.31-6.17,6.48-17.51.36-23.87-6.12-6.36-17.45-6.63-23.86-.57-6.41,6.06-6.78,17.39-.77,23.86-11.69,12.05-22.9,25.65-26.52,42.04-2.98,13.44-.36,28.03,7.09,39.61.02.04-.49.72-.54.8-.18.28-.34.57-.49.87-.08.15-.14.3-.21.45-84.75,8.58-118.42,62.35-120.72,132.89-.14,3.32,3.38,5.38,5.95,5.44,2.76.07,5.82-1.38,6.2-4.61,1.26-10.75,2.64-28.52,6.69-38.64-.69,32.79,7.68,64.33,18.86,93.27,4.2,10.88,12.39,17.11,24.28,17.44,12.08.33,22.77-6.31,25.7-18.72ZM194.52,38.69c.48-3.47,3.33-6.24,6.81-6.64,4.73-.54,8.73,3.15,8.73,7.76,0,2.55-1.22,4.81-3.11,6.23-.1.08-.2.15-.3.22-1.25.86-2.77,1.36-4.4,1.36s-3.15-.5-4.39-1.36c-.11-.07-.2-.14-.3-.22-2.16-1.63-3.45-4.35-3.04-7.35ZM184.34,134.18l-.51-.74-1.31-1.91c-12-17.49-11.51-34.23-.21-52.96,2.47-4.09,5.32-7.94,8.4-11.59l7.61-9.04c.5-.59,1.39-.65,1.97-.13l6.8,6.18-12.61,23.3c-2.39,3.96-.94,9.27,3.61,10.09.04,0,.07.01.11.02,2.46.41,4.9-.89,6.05-3.11l10.77-20.72c.65-1.24,2.37-1.41,3.23-.3,15.81,20.29,16.94,39.01,3.73,58.26l-1.31,1.91-.51.74c-.09.14-.17.28-.25.43-15.71,0-28.9,0-28.9,0-2.16.02-4.27.08-6.37.15-.09-.2-.19-.39-.31-.58Z"/>
        <path class="cls-2" d="M401.3,243.13c-1.13-1.98-4.96-3.63-7.42-1.91-15.91,11.08-35.53,13.42-53.87,6.84l-15.54-5.58c-19.29-6.92-39.95-1.11-53.01,14.67-15.48,18.72-17.55,44.72-6.03,66.26,3.08,5.76,2.64,11.45-2.77,15.74-4.69,3.72-10.82,6.25-17.41,6.27l-103.84.23c-16.65.04-30.32,15.19-29.91,32.02.09,3.68,3.22,6.25,6.69,6.21l21.4-.23,112.68-.1,15.81.16h12.82s15.12-.1,15.12-.1c3.32-.02,5.76-2.73,5.8-6.14.14-12.54-6.99-24.04-18.03-29.19-1.92-.89-4.23-.43-5.59,1.19-.25.29-.5.58-.75.86-2.47,2.73-1.79,7.11,1.51,8.75,5.02,2.48,8.81,6.81,10.2,12.77H124.13c2.17-9.41,10.2-14.65,19.39-14.67l102.74-.19c9.69-.02,18.42-4.15,25.06-9.96,7.65-6.69,10.4-17.77,5.34-26.62-9.65-16.88-9.61-37.05,1.54-53.01,10.31-14.75,28.19-19.87,44.94-13.11,7.82,3.15,15.41,5.92,23.84,7.85,1.01.23,1.69,1.16,1.61,2.2-1.47,18.02-9.02,38.71-26.81,43.12-7.03,1.74-14.45.19-19.29-5.06-3.41-3.69-4.53-8.62-2.38-13.33,1.58-3.45,5.91-6.25,10.57-6.11,2.95.09,5.09-.47,6.59-2.92,1.22-1.98,1.15-4.7-.28-6.61-3.74-5-21.39-2.38-27.49,10.62-3.91,8.34-2.84,17.45,3.09,24.89,7.69,9.65,20.84,12.96,32.8,9.73,22.68-6.4,33.33-30.45,34.66-53.31.06-1.08.92-1.94,2-1.96,13.82-.23,26.92-4.48,38.06-12.57,2.43-1.76,2.47-5.44,1.17-7.73Z"/>
      </g>
      <g>
        <path class="cls-3" d="M505.83,169.96l-17.83-24.53c-2.05-2.81-3.03-4.32-3.03-6.48v-.32c0-3.13,2.16-5.08,5.51-5.08h3.46c8,0,11.35-2.92,11.35-9.94v-6.05c0-7.02-3.35-9.94-11.24-9.94h-14.7v60.95c0,2.27-1.51,3.78-3.89,3.78h-5.19c-2.38,0-3.89-1.51-3.89-3.78v-64.84c0-4.32,2.81-7.02,7.13-7.02h20.53c16.1,0,24.21,7.13,24.21,21.29v5.73c0,11.56-5.4,17.83-16.53,19.56l14.91,19.78c2.59,3.35,1.41,7.13-1.84,9.18-2.81,1.73-6.7.87-8.97-2.27Z"/>
        <path class="cls-3" d="M526.69,157.43v-.86c0-11.13,7.24-16.32,22.69-16.32,4,0,8.21.43,12.21,1.3v-7.89c0-4.65-3.24-6.81-10.37-6.81s-9.94,1.62-9.94,5.51v.54c0,1.51-.76,2.27-2.27,2.27h-7.78c-1.51,0-2.38-.86-2.38-2.38v-.54c0-9.83,8.1-15.45,22.26-15.45,15.45,0,23.34,5.94,23.34,17.72v22.37l5.94,5.94c2.05,2.05,2.27,4.65.22,6.7l-2.16,2.16c-2.05,2.05-4.65,1.84-6.7-.22l-5.73-5.73c-3.67,4.75-9.94,7.78-17.61,7.78-13.62,0-21.72-5.73-21.72-16.1ZM550.03,163.7c6.7,0,11.56-3.57,11.56-8.54v-4.97c-3.78-1.08-7.35-1.4-11.13-1.4-7.46,0-11.13,2.38-11.13,7.13v.86c0,4.65,3.57,6.92,10.7,6.92Z"/>
        <path class="cls-3" d="M590.88,168.56v-45.71c0-3.46,2.16-5.83,5.62-5.83h.43c3.46,0,5.62,2.38,5.62,5.83v.32c3.46-4.21,8.75-6.38,15.45-6.38,13.08,0,22.04,8,22.04,22.26v29.5c0,2.27-1.51,3.78-3.89,3.78h-5.4c-2.16,0-3.67-1.51-3.67-3.78v-29.5c0-7.56-4-11.67-11.56-11.67s-11.67,4.11-11.67,11.67v29.5c0,2.27-1.51,3.78-3.67,3.78h-5.4c-2.38,0-3.89-1.51-3.89-3.78Z"/>
        <path class="cls-3" d="M655.5,168.56v-67.75c0-3.24,2.05-5.3,5.29-5.3h2.38c3.24,0,5.29,2.05,5.29,5.3v67.75c0,2.27-1.51,3.78-3.78,3.78h-5.4c-2.27,0-3.78-1.51-3.78-3.78ZM692.56,170.61l-17.29-20.21c-1.62-1.95-2.16-3.67-2.16-5.62,0-1.84.54-3.57,2.16-5.62l14.59-17.94c1.84-2.27,3.03-3.24,5.73-3.24h5.08c2.27,0,3.46.97,3.46,2.92,0,1.3-.22,2.27-2.05,4.43l-16.1,19.02,16.43,17.94c2.92,3.13,2.38,7.02-.54,9.4-2.7,2.16-6.81,1.73-9.29-1.08Z"/>
        <path class="cls-3" d="M484.44,260.76v-26.8l-20.32-38.04c-1.08-1.95-1.51-2.81-1.51-4.11,0-1.84,1.3-2.92,3.46-2.92h5.19c2.59,0,3.78.97,4.97,3.35l14.91,28.96,14.91-28.96c1.3-2.49,2.59-3.35,5.19-3.35h4.54c2.16,0,3.46,1.08,3.46,2.92,0,1.3-.43,2.16-1.51,4.11l-20.32,38.04v26.8c0,2.27-1.51,3.78-3.89,3.78h-5.19c-2.38,0-3.89-1.51-3.89-3.78Z"/>
        <path class="cls-3" d="M527.66,243.58v-12.43c0-14.26,9.18-22.15,25.39-22.15s25.39,7.89,25.39,22.15v12.43c0,14.26-9.19,22.15-25.39,22.15s-25.39-7.89-25.39-22.15ZM565.48,244.87v-15.02c0-6.92-4.32-10.59-12.43-10.59s-12.43,3.67-12.43,10.59v15.02c0,6.92,4.32,10.59,12.43,10.59s12.43-3.67,12.43-10.59Z"/>
        <path class="cls-3" d="M639.51,213.97v45.71c0,3.46-2.16,5.84-5.62,5.84h-.43c-3.46,0-5.62-2.38-5.62-5.84v-.32c-3.46,4.21-8.75,6.38-15.45,6.38-13.08,0-22.04-8-22.04-22.26v-29.5c0-2.27,1.51-3.78,3.89-3.78h5.4c2.16,0,3.67,1.51,3.67,3.78v29.5c0,7.56,4,11.67,11.56,11.67s11.67-4.11,11.67-11.67v-29.5c0-2.27,1.51-3.78,3.67-3.78h5.4c2.38,0,3.89,1.51,3.89,3.78Z"/>
        <path class="cls-3" d="M650.09,261.73v-4.86c0-1.73,1.19-2.81,2.92-2.81h8.1v-25.72l-8.64-8.64c-2.05-2.05-2.27-4.65-.22-6.7l2.16-2.16c2.05-2.05,4.65-1.84,6.7.22l6.38,6.38c3.03-5.62,9.19-8.43,18.05-8.43,13.29,0,20.42,6.38,20.42,18.59v3.13c0,2.92-1.51,4.43-4.43,4.43h-3.89c-2.7,0-4.21-1.51-4.21-4.32v-3.13c0-5.4-3.46-8.43-9.73-8.43s-9.62,3.03-9.62,8.43v26.37h11.89c1.73,0,2.92,1.08,2.92,2.81v4.86c0,1.73-1.19,2.81-2.92,2.81h-32.96c-1.73,0-2.92-1.08-2.92-2.81Z"/>
        <path class="cls-3" d="M466.61,350.8v-63.76c0-3.67,2.16-5.94,5.84-5.94h20.64c16.43,0,24.21,6.16,24.21,19.23v3.03c0,6.92-3.24,11.89-9.19,14.59,6.81,2.7,10.48,7.89,10.48,15.35v3.35c0,13.51-8.1,20.1-24.53,20.1h-21.61c-3.67,0-5.84-2.27-5.84-5.94ZM479.58,291.8v21.4h13.62c7.78,0,11.13-2.7,11.13-9.08v-3.03c0-6.48-3.35-9.29-11.13-9.29h-13.62ZM494.16,346.04c7.89,0,11.45-2.92,11.45-9.51v-3.35c0-6.59-3.57-9.51-11.45-9.51h-14.59v22.37h14.59Z"/>
        <path class="cls-3" d="M527.44,353.93v-4.86c0-1.73,1.19-2.81,2.92-2.81h8.1v-25.72l-8.64-8.64c-2.05-2.05-2.27-4.65-.22-6.7l2.16-2.16c2.05-2.05,4.65-1.84,6.7.22l6.38,6.38c3.03-5.62,9.19-8.43,18.05-8.43,13.29,0,20.42,6.38,20.42,18.59v3.13c0,2.92-1.51,4.43-4.43,4.43h-3.89c-2.7,0-4.21-1.51-4.21-4.32v-3.13c0-5.4-3.46-8.43-9.73-8.43s-9.62,3.03-9.62,8.43v26.37h11.89c1.73,0,2.92,1.08,2.92,2.81v4.86c0,1.73-1.19,2.81-2.92,2.81h-32.96c-1.73,0-2.92-1.08-2.92-2.81Z"/>
        <path class="cls-3" d="M590.44,341.83v-.86c0-11.13,7.24-16.32,22.69-16.32,4,0,8.21.43,12.21,1.3v-7.89c0-4.65-3.24-6.81-10.37-6.81s-9.94,1.62-9.94,5.51v.54c0,1.51-.76,2.27-2.27,2.27h-7.78c-1.51,0-2.38-.86-2.38-2.38v-.54c0-9.83,8.1-15.45,22.26-15.45,15.45,0,23.34,5.94,23.34,17.72v22.37l5.94,5.94c2.05,2.05,2.27,4.65.22,6.7l-2.16,2.16c-2.05,2.05-4.65,1.84-6.7-.22l-5.73-5.73c-3.67,4.75-9.94,7.78-17.61,7.78-13.62,0-21.72-5.73-21.72-16.1ZM613.79,348.1c6.7,0,11.56-3.57,11.56-8.54v-4.97c-3.78-1.08-7.35-1.4-11.13-1.4-7.46,0-11.13,2.38-11.13,7.13v.87c0,4.65,3.57,6.92,10.7,6.92Z"/>
        <path class="cls-3" d="M654.63,352.96v-45.71c0-3.46,2.16-5.83,5.62-5.83h.43c3.46,0,5.62,2.38,5.62,5.83v.32c3.46-4.21,8.75-6.38,15.45-6.38,13.08,0,22.04,8,22.04,22.26v29.5c0,2.27-1.51,3.78-3.89,3.78h-5.4c-2.16,0-3.67-1.51-3.67-3.78v-29.5c0-7.56-4-11.67-11.56-11.67s-11.67,4.11-11.67,11.67v29.5c0,2.27-1.51,3.78-3.67,3.78h-5.4c-2.38,0-3.89-1.51-3.89-3.78Z"/>
        <path class="cls-3" d="M715.69,335.35v-11.56c0-13.72,9.18-22.58,22.91-22.58,5.94,0,10.59,1.62,13.83,4.75v-20.75c0-3.24,2.05-5.3,5.29-5.3h2.38c3.24,0,5.3,2.05,5.3,5.3v66.67c0,3.46-2.16,5.84-5.62,5.84h-.43c-3.46,0-5.62-2.38-5.62-5.73-3.35,3.89-8.43,5.94-15.02,5.94-13.83,0-23.02-8.86-23.02-22.58ZM752.43,336.53v-13.94c0-7.13-4.11-11.13-11.89-11.13s-11.89,4-11.89,11.13v13.94c0,7.13,4.11,11.13,11.89,11.13s11.89-4,11.89-11.13Z"/>
      </g>
    </g>
  </g>
</svg>