<?xml version="1.0" encoding="UTF-8"?>
<svg id="Capa_2" data-name="Capa 2" xmlns="http://www.w3.org/2000/svg" viewBox="0 0 654.81 567.53">
  <defs>
    <style>
      .cls-1 {
        fill: #007ba7;
      }
    </style>
  </defs>
  <g id="Capa_1-2" data-name="Capa 1">
    <g>
      <path class="cls-1" d="M93.48,161.02l-38.56-53.05c-4.44-6.08-6.54-9.35-6.54-14.02v-.7c0-6.78,4.67-10.98,11.92-10.98h7.48c17.29,0,24.54-6.31,24.54-21.5v-13.09c0-15.19-7.24-21.5-24.3-21.5h-31.78v131.81c0,4.91-3.27,8.18-8.41,8.18h-11.22c-5.14,0-8.41-3.27-8.41-8.18V17.76c0-9.35,6.08-15.19,15.42-15.19h44.4c34.82,0,52.35,15.42,52.35,46.04v12.39c0,25.01-11.69,38.56-35.76,42.3l32.25,42.77c5.61,7.25,3.04,15.42-3.97,19.87-6.08,3.74-14.49,1.87-19.4-4.91Z"/>
      <path class="cls-1" d="M138.58,133.91v-1.87c0-24.07,15.66-35.29,49.08-35.29,8.65,0,17.76.93,26.41,2.8v-17.06c0-10.05-7.01-14.72-22.44-14.72s-21.5,3.51-21.5,11.92v1.17c0,3.27-1.64,4.91-4.91,4.91h-16.83c-3.27,0-5.14-1.87-5.14-5.14v-1.17c0-21.27,17.53-33.42,48.14-33.42,33.42,0,50.48,12.85,50.48,38.33v48.38l12.85,12.85c4.44,4.44,4.91,10.05.47,14.49l-4.67,4.67c-4.44,4.44-10.05,3.97-14.49-.47l-12.39-12.39c-7.95,10.28-21.5,16.83-38.09,16.83-29.45,0-46.97-12.39-46.97-34.82ZM189.06,147.47c14.49,0,25.01-7.71,25.01-18.46v-10.75c-8.18-2.34-15.89-3.04-24.07-3.04-16.12,0-24.07,5.14-24.07,15.42v1.87c0,10.05,7.71,14.96,23.14,14.96Z"/>
      <path class="cls-1" d="M277.39,157.98V59.13c0-7.48,4.67-12.62,12.15-12.62h.93c7.48,0,12.15,5.14,12.15,12.62v.7c7.48-9.11,18.93-13.79,33.42-13.79,28.28,0,47.68,17.29,47.68,48.14v63.8c0,4.91-3.27,8.18-8.41,8.18h-11.68c-4.67,0-7.95-3.27-7.95-8.18v-63.8c0-16.36-8.65-25.24-25.01-25.24s-25.24,8.88-25.24,25.24v63.8c0,4.91-3.27,8.18-7.95,8.18h-11.68c-5.14,0-8.41-3.27-8.41-8.18Z"/>
      <path class="cls-1" d="M417.14,157.98V11.45c0-7.01,4.44-11.45,11.45-11.45h5.14c7.01,0,11.45,4.44,11.45,11.45v146.53c0,4.91-3.27,8.18-8.18,8.18h-11.68c-4.91,0-8.18-3.27-8.18-8.18ZM497.3,162.42l-37.39-43.7c-3.51-4.21-4.67-7.95-4.67-12.15,0-3.97,1.17-7.71,4.67-12.15l31.55-38.79c3.97-4.91,6.54-7.01,12.39-7.01h10.98c4.91,0,7.48,2.1,7.48,6.31,0,2.8-.47,4.91-4.44,9.58l-34.82,41.13,35.52,38.79c6.31,6.78,5.14,15.19-1.17,20.33-5.84,4.67-14.72,3.74-20.1-2.34Z"/>
      <path class="cls-1" d="M47.21,357.38v-57.96L3.27,217.16c-2.34-4.21-3.27-6.08-3.27-8.88,0-3.97,2.8-6.31,7.48-6.31h11.22c5.61,0,8.18,2.1,10.75,7.25l32.25,62.63,32.25-62.63c2.8-5.38,5.61-7.25,11.22-7.25h9.82c4.67,0,7.48,2.34,7.48,6.31,0,2.8-.94,4.67-3.27,8.88l-43.94,82.26v57.96c0,4.91-3.27,8.18-8.41,8.18h-11.22c-5.14,0-8.41-3.27-8.41-8.18Z"/>
      <path class="cls-1" d="M140.68,320.22v-26.88c0-30.85,19.87-47.91,54.92-47.91s54.92,17.06,54.92,47.91v26.88c0,30.85-19.86,47.91-54.92,47.91s-54.92-17.06-54.92-47.91ZM222.48,323.03v-32.48c0-14.96-9.35-22.9-26.88-22.9s-26.88,7.95-26.88,22.9v32.48c0,14.96,9.35,22.9,26.88,22.9s26.88-7.95,26.88-22.9Z"/>
      <path class="cls-1" d="M382.56,256.19v98.86c0,7.48-4.67,12.62-12.15,12.62h-.93c-7.48,0-12.15-5.14-12.15-12.62v-.7c-7.48,9.11-18.93,13.79-33.42,13.79-28.28,0-47.68-17.29-47.68-48.14v-63.8c0-4.91,3.27-8.18,8.41-8.18h11.69c4.67,0,7.95,3.27,7.95,8.18v63.8c0,16.36,8.65,25.24,25.01,25.24s25.24-8.88,25.24-25.24v-63.8c0-4.91,3.27-8.18,7.95-8.18h11.69c5.14,0,8.41,3.27,8.41,8.18Z"/>
      <path class="cls-1" d="M405.46,359.48v-10.52c0-3.74,2.57-6.08,6.31-6.08h17.53v-55.62l-18.7-18.7c-4.44-4.44-4.91-10.05-.47-14.49l4.67-4.67c4.44-4.44,10.05-3.97,14.49.47l13.79,13.79c6.54-12.15,19.87-18.23,39.03-18.23,28.75,0,44.17,13.79,44.17,40.2v6.78c0,6.31-3.27,9.58-9.58,9.58h-8.41c-5.84,0-9.11-3.27-9.11-9.35v-6.78c0-11.68-7.48-18.23-21.03-18.23s-20.8,6.54-20.8,18.23v57.02h25.71c3.74,0,6.31,2.34,6.31,6.08v10.52c0,3.74-2.57,6.08-6.31,6.08h-71.28c-3.74,0-6.31-2.34-6.31-6.08Z"/>
      <path class="cls-1" d="M8.65,552.1v-137.89c0-7.95,4.67-12.85,12.62-12.85h44.64c35.52,0,52.35,13.32,52.35,41.6v6.54c0,14.96-7.01,25.71-19.87,31.55,14.72,5.84,22.67,17.06,22.67,33.19v7.25c0,29.21-17.53,43.47-53.05,43.47H21.27c-7.95,0-12.62-4.91-12.62-12.85ZM36.69,424.5v46.27h29.45c16.83,0,24.07-5.84,24.07-19.63v-6.54c0-14.02-7.24-20.1-24.07-20.1h-29.45ZM68.24,541.82c17.06,0,24.77-6.31,24.77-20.57v-7.25c0-14.26-7.71-20.57-24.77-20.57h-31.55v48.38h31.55Z"/>
      <path class="cls-1" d="M140.22,558.88v-10.52c0-3.74,2.57-6.08,6.31-6.08h17.53v-55.62l-18.7-18.7c-4.44-4.44-4.91-10.05-.47-14.49l4.67-4.67c4.44-4.44,10.05-3.97,14.49.47l13.79,13.79c6.54-12.15,19.87-18.23,39.03-18.23,28.75,0,44.17,13.79,44.17,40.2v6.78c0,6.31-3.27,9.58-9.58,9.58h-8.41c-5.84,0-9.11-3.27-9.11-9.35v-6.78c0-11.68-7.48-18.23-21.03-18.23s-20.8,6.54-20.8,18.23v57.02h25.71c3.74,0,6.31,2.34,6.31,6.08v10.52c0,3.74-2.57,6.08-6.31,6.08h-71.28c-3.74,0-6.31-2.34-6.31-6.08Z"/>
      <path class="cls-1" d="M276.46,532.7v-1.87c0-24.07,15.66-35.29,49.08-35.29,8.65,0,17.76.93,26.41,2.8v-17.06c0-10.05-7.01-14.72-22.44-14.72s-21.5,3.51-21.5,11.92v1.17c0,3.27-1.64,4.91-4.91,4.91h-16.83c-3.27,0-5.14-1.87-5.14-5.14v-1.17c0-21.27,17.53-33.42,48.14-33.42,33.42,0,50.48,12.85,50.48,38.33v48.38l12.85,12.85c4.44,4.44,4.91,10.05.47,14.49l-4.67,4.67c-4.44,4.44-10.05,3.97-14.49-.47l-12.39-12.39c-7.95,10.28-21.5,16.83-38.09,16.83-29.45,0-46.97-12.39-46.97-34.82ZM326.94,546.26c14.49,0,25.01-7.71,25.01-18.46v-10.75c-8.18-2.34-15.89-3.04-24.07-3.04-16.12,0-24.07,5.14-24.07,15.42v1.87c0,10.05,7.71,14.96,23.14,14.96Z"/>
      <path class="cls-1" d="M415.27,556.78v-98.86c0-7.48,4.67-12.62,12.15-12.62h.93c7.48,0,12.15,5.14,12.15,12.62v.7c7.48-9.11,18.93-13.79,33.42-13.79,28.28,0,47.68,17.29,47.68,48.14v63.8c0,4.91-3.27,8.18-8.41,8.18h-11.68c-4.67,0-7.95-3.27-7.95-8.18v-63.8c0-16.36-8.65-25.24-25.01-25.24s-25.24,8.88-25.24,25.24v63.8c0,4.91-3.27,8.18-7.95,8.18h-11.68c-5.14,0-8.41-3.27-8.41-8.18Z"/>
      <path class="cls-1" d="M547.31,518.68v-25.01c0-29.68,19.87-48.84,49.55-48.84,12.85,0,22.9,3.51,29.91,10.28v-44.87c0-7.01,4.44-11.45,11.45-11.45h5.14c7.01,0,11.45,4.44,11.45,11.45v144.2c0,7.48-4.67,12.62-12.15,12.62h-.93c-7.48,0-12.15-5.14-12.15-12.39-7.24,8.41-18.23,12.85-32.48,12.85-29.91,0-49.78-19.16-49.78-48.84ZM626.77,521.25v-30.15c0-15.42-8.88-24.07-25.71-24.07s-25.71,8.65-25.71,24.07v30.15c0,15.42,8.88,24.07,25.71,24.07s25.71-8.65,25.71-24.07Z"/>
    </g>
  </g>
</svg>